<?xml version="1.0" encoding="UTF-8" standalone="no"?>
<svg
   xmlns:dc="http://purl.org/dc/elements/1.1/"
   xmlns:cc="http://creativecommons.org/ns#"
   xmlns:rdf="http://www.w3.org/1999/02/22-rdf-syntax-ns#"
   xmlns:svg="http://www.w3.org/2000/svg"
   xmlns="http://www.w3.org/2000/svg"
   id="svg5078"
   version="1.1"
   viewBox="0 0 38.438194 24.467411"
   height="24.467411mm"
   width="38.438194mm">
  <defs
     id="defs5072">
    <filter
       id="filter4997"
       style="color-interpolation-filters:sRGB">
      <feFlood
         id="feFlood4987"
         result="flood"
         flood-color="rgb(10,145,206)"
         flood-opacity="1" />
      <feComposite
         id="feComposite4989"
         result="composite1"
         operator="in"
         in2="SourceGraphic"
         in="flood" />
      <feGaussianBlur
         id="feGaussianBlur4991"
         result="blur"
         stdDeviation="0.2"
         in="composite1" />
      <feOffset
         id="feOffset4993"
         result="offset"
         dy="0"
         dx="0" />
      <feComposite
         id="feComposite4995"
         result="fbSourceGraphic"
         operator="atop"
         in2="offset"
         in="offset" />
      <feColorMatrix
         id="feColorMatrix4999"
         values="0 0 0 -1 0 0 0 0 -1 0 0 0 0 -1 0 0 0 0 1 0"
         in="fbSourceGraphic"
         result="fbSourceGraphicAlpha" />
      <feFlood
         in="fbSourceGraphic"
         result="flood"
         flood-color="rgb(0,0,0)"
         flood-opacity="1"
         id="feFlood5001" />
      <feComposite
         result="composite1"
         operator="in"
         in="flood"
         id="feComposite5003"
         in2="fbSourceGraphic" />
      <feGaussianBlur
         result="blur"
         stdDeviation="0.2"
         in="composite1"
         id="feGaussianBlur5005" />
      <feOffset
         result="offset"
         dy="0"
         dx="0"
         id="feOffset5007" />
      <feComposite
         result="composite2"
         operator="atop"
         in="offset"
         id="feComposite5009"
         in2="offset" />
    </filter>
  </defs>
  <metadata
     id="metadata5075">
    <rdf:RDF>
      <cc:Work
         rdf:about="">
        <dc:format>image/svg+xml</dc:format>
        <dc:type
           rdf:resource="http://purl.org/dc/dcmitype/StillImage" />
        <dc:title></dc:title>
      </cc:Work>
    </rdf:RDF>
  </metadata>
  <g
     transform="translate(82.555795,36.942854)"
     id="layer1">
    <g
       id="g3779"
       transform="matrix(0.84278047,0,0,0.84278047,-79.639961,-105.79405)">
      <rect
         ry="1.3410892"
         rx="1.7102227"
         y="87.081467"
         x="-1.0866814"
         height="20.45796"
         width="11.953497"
         id="rect3769"
         style="opacity:1;fill:#4b4b4b;fill-opacity:1;fill-rule:nonzero;stroke:none;stroke-width:1.52879536;stroke-linecap:round;stroke-linejoin:round;stroke-miterlimit:4;stroke-dasharray:none;stroke-opacity:1" />
      <g
         style="fill:#ffffff"
         id="g3777">
        <rect
           style="opacity:0.97000002;fill:#ffffff;fill-opacity:1;fill-rule:nonzero;stroke:none;stroke-width:0.96499997;stroke-linecap:round;stroke-linejoin:round;stroke-miterlimit:4;stroke-dasharray:none;stroke-opacity:1"
           id="rect3771"
           width="8.6462049"
           height="11.953496"
           x="0.56696463"
           y="91.286453"
           rx="0"
           ry="0" />
        <rect
           style="opacity:0.97000002;fill:#ffffff;fill-opacity:1;fill-rule:nonzero;stroke:none;stroke-width:0.87428671;stroke-linecap:round;stroke-linejoin:round;stroke-miterlimit:4;stroke-dasharray:none;stroke-opacity:1"
           id="rect3773"
           width="3.4003789"
           height="0.96975201"
           x="3.1898775"
           y="88.718414"
           ry="0.29362458"
           rx="0.2808162" />
        <circle
           style="opacity:0.97000002;fill:#ffffff;fill-opacity:1;fill-rule:nonzero;stroke:none;stroke-width:0.8307656;stroke-linecap:round;stroke-linejoin:round;stroke-miterlimit:4;stroke-dasharray:none;stroke-opacity:1"
           id="circle3775"
           cx="4.8900671"
           cy="104.95014"
           r="0.87722391" />
      </g>
    </g>
    <rect
       ry="0"
       rx="0"
       y="-33.237236"
       x="-64.879395"
       height="17.056175"
       width="17.056175"
       id="rect4630"
       style="opacity:0.29899998;fill:#ffffff;fill-opacity:1;fill-rule:nonzero;stroke:none;stroke-width:1.05833328;stroke-linecap:round;stroke-linejoin:round;stroke-miterlimit:4;stroke-dasharray:none;stroke-opacity:1;filter:url(#filter4997)" />
    <rect
       style="opacity:1;fill:#ffffff;fill-opacity:1;fill-rule:nonzero;stroke:none;stroke-width:1.05833328;stroke-linecap:round;stroke-linejoin:round;stroke-miterlimit:4;stroke-dasharray:none;stroke-opacity:1"
       id="rect5011"
       width="17.056175"
       height="17.056175"
       x="-64.879395"
       y="-33.237236"
       rx="0"
       ry="0" />
    <path
       id="path5028"
       d="m -63.03783,-20.251469 v -2.228839 h 2.228841 2.22884 v 2.228839 2.22884 h -2.22884 -2.228841 z m 3.820871,0 v -1.592028 h -1.59203 -1.592031 v 1.592028 1.59203 h 1.592031 1.59203 z m -2.547251,0 v -0.955216 h 0.955221 0.95522 v 0.955216 0.95522 h -0.95522 -0.955221 z m 3.820871,1.91043 c 0,-0.21227 0.10614,-0.3184 0.318409,-0.3184 0.212271,0 0.318401,-0.10614 0.318401,-0.31841 0,-0.21227 -0.10613,-0.3184 -0.318401,-0.3184 -0.212269,0 -0.318409,-0.10614 -0.318409,-0.31841 0,-0.21227 0.10614,-0.3184 0.318409,-0.3184 0.212271,0 0.318401,-0.10614 0.318401,-0.31841 0,-0.21227 -0.10613,-0.318405 -0.318401,-0.318405 -0.212269,0 -0.318409,-0.106135 -0.318409,-0.318406 0,-0.21227 0.10614,-0.318405 0.318409,-0.318405 0.212271,0 0.318401,-0.106136 0.318401,-0.318406 0,-0.21227 0.10614,-0.318406 0.318409,-0.318406 0.212271,0 0.318401,-0.106135 0.318401,-0.318405 0,-0.212271 0.10614,-0.318406 0.318409,-0.318406 0.21227,0 0.318411,-0.106135 0.318411,-0.318405 0,-0.265338 -0.106141,-0.318406 -0.63682,-0.318406 -0.53067,0 -0.63681,0.05307 -0.63681,0.318406 0,0.21227 -0.10613,0.318405 -0.318401,0.318405 -0.212269,0 -0.318409,-0.106135 -0.318409,-0.318405 0,-0.265338 -0.10613,-0.318406 -0.63681,-0.318406 -0.530681,0 -0.63681,-0.05307 -0.63681,-0.318406 0,-0.283027 -0.10614,-0.318405 -0.95522,-0.318405 -0.849081,0 -0.955211,0.03538 -0.955211,0.318405 0,0.265338 -0.106139,0.318406 -0.63682,0.318406 -0.53067,0 -0.63681,-0.05307 -0.63681,-0.318406 0,-0.21227 -0.10613,-0.318405 -0.318399,-0.318405 -0.26534,0 -0.318411,-0.106135 -0.318411,-0.636811 0,-0.530676 0.0531,-0.636812 0.318411,-0.636812 0.212269,0 0.318399,-0.106135 0.318399,-0.318405 0,-0.212271 -0.10613,-0.318406 -0.318399,-0.318406 -0.212271,0 -0.318411,-0.106135 -0.318411,-0.318405 0,-0.212271 0.10614,-0.318406 0.318411,-0.318406 0.212269,0 0.318399,0.106135 0.318399,0.318406 0,0.21227 0.10614,0.318405 0.318411,0.318405 0.212269,0 0.318399,-0.106135 0.318399,-0.318405 0,-0.212271 0.10614,-0.318406 0.318411,-0.318406 0.265339,0 0.318409,0.106135 0.318409,0.636811 v 0.636811 h -0.63682 c -0.53067,0 -0.63681,0.05307 -0.63681,0.318406 0,0.297179 0.10614,0.318406 1.592031,0.318406 1.48589,0 1.59203,-0.02123 1.59203,-0.318406 0,-0.21227 0.106129,-0.318406 0.318409,-0.318406 0.212271,0 0.318401,-0.106135 0.318401,-0.318405 0,-0.212271 -0.10613,-0.318406 -0.318401,-0.318406 -0.21228,0 -0.318409,-0.106135 -0.318409,-0.318405 0,-0.212271 0.106129,-0.318406 0.318409,-0.318406 0.212271,0 0.318401,0.106135 0.318401,0.318406 0,0.265338 0.10614,0.318405 0.63681,0.318405 h 0.63681 v -0.636811 c 0,-0.530676 -0.0531,-0.636811 -0.318401,-0.636811 -0.212269,0 -0.318409,-0.106135 -0.318409,-0.318406 0,-0.21227 0.10614,-0.318405 0.318409,-0.318405 0.212271,0 0.318401,0.106135 0.318401,0.318405 0,0.212271 0.10614,0.318406 0.318409,0.318406 0.212271,0 0.318401,-0.106135 0.318401,-0.318406 0,-0.21227 0.10614,-0.318405 0.318409,-0.318405 0.21227,0 0.318411,0.106135 0.318411,0.318405 0,0.212271 0.10613,0.318406 0.3184,0.318406 0.28303,0 0.31841,-0.106135 0.31841,-0.955217 0,-0.849082 -0.0354,-0.955217 -0.31841,-0.955217 -0.21227,0 -0.3184,-0.106135 -0.3184,-0.318405 0,-0.212271 0.10613,-0.318406 0.3184,-0.318406 0.212269,0 0.31841,0.106135 0.31841,0.318406 0,0.21227 0.10613,0.318405 0.3184,0.318405 0.29187,0 0.318409,0.106135 0.318409,1.273623 0,1.167487 -0.0265,1.273622 -0.318409,1.273622 -0.21227,0 -0.3184,0.106135 -0.3184,0.318406 0,0.265338 -0.106141,0.318405 -0.63681,0.318405 -0.53068,0 -0.63682,0.05307 -0.63682,0.318406 0,0.21227 0.10614,0.318405 0.318409,0.318405 0.283031,0 0.318411,0.106136 0.318411,0.955217 0,0.849082 0.0354,0.955217 0.3184,0.955217 0.212269,0 0.31841,-0.106135 0.31841,-0.318406 0,-0.21227 0.10613,-0.318405 0.3184,-0.318405 0.212269,0 0.318409,0.106135 0.318409,0.318405 0,0.212271 0.106131,0.318406 0.318401,0.318406 0.26534,0 0.318409,-0.106135 0.318409,-0.636811 v -0.636811 h 0.63681 c 0.53068,0 0.636809,-0.05307 0.636809,-0.318406 0,-0.265338 -0.106129,-0.318406 -0.636809,-0.318406 -0.53068,0 -0.63681,-0.05307 -0.63681,-0.318405 0,-0.265338 0.10613,-0.318406 0.63681,-0.318406 0.53068,0 0.636809,-0.05307 0.636809,-0.318405 0,-0.212271 0.106141,-0.318406 0.318411,-0.318406 0.212269,0 0.318402,0.106135 0.318402,0.318406 0,0.21227 -0.106132,0.318405 -0.318402,0.318405 -0.21227,0 -0.318411,0.106135 -0.318411,0.318406 0,0.265338 0.106141,0.318405 0.636813,0.318405 0.53068,0 0.63681,-0.05307 0.63681,-0.318405 0,-0.212271 0.10614,-0.318406 0.31841,-0.318406 0.21227,0 0.31841,-0.106135 0.31841,-0.318405 0,-0.212271 0.10613,-0.318406 0.318399,-0.318406 0.21227,0 0.318411,0.106135 0.318411,0.318406 0,0.21227 0.106129,0.318405 0.318399,0.318405 0.29187,0 0.31841,0.106135 0.31841,1.273623 0,1.167487 -0.0265,1.273622 -0.31841,1.273622 -0.21227,0 -0.318399,0.106135 -0.318399,0.318406 0,0.21227 0.106129,0.318405 0.318399,0.318405 0.28303,0 0.31841,0.106135 0.31841,0.955217 0,0.849082 -0.0354,0.955217 -0.31841,0.955217 -0.21227,0 -0.318399,0.106135 -0.318399,0.318405 0,0.21227 0.106129,0.31841 0.318399,0.31841 0.21227,0 0.31841,0.10613 0.31841,0.3184 0,0.21227 -0.10614,0.31841 -0.31841,0.31841 -0.21227,0 -0.318399,0.10613 -0.318399,0.3184 0,0.21227 0.106129,0.31841 0.318399,0.31841 0.21227,0 0.31841,0.10613 0.31841,0.3184 0,0.26534 -0.10614,0.31841 -0.636809,0.31841 h -0.63681 v -0.63681 c 0,-0.53068 0.0531,-0.63681 0.318399,-0.63681 0.21227,0 0.318411,-0.10614 0.318411,-0.31841 0,-0.21227 -0.106141,-0.3184 -0.318411,-0.3184 -0.26534,0 -0.318399,-0.10614 -0.318399,-0.636815 0,-0.530676 0.0531,-0.636811 0.318399,-0.636811 0.21227,0 0.318411,-0.106136 0.318411,-0.318406 0,-0.265338 -0.106141,-0.318406 -0.63681,-0.318406 -0.53068,0 -0.63682,-0.05307 -0.63682,-0.318405 0,-0.212271 0.10614,-0.318406 0.31841,-0.318406 0.21227,0 0.31841,-0.106135 0.31841,-0.318405 0,-0.212271 -0.10614,-0.318406 -0.31841,-0.318406 -0.21227,0 -0.31841,-0.106135 -0.31841,-0.318406 0,-0.21227 0.10614,-0.318405 0.31841,-0.318405 0.21227,0 0.31841,-0.106135 0.31841,-0.318406 0,-0.283027 -0.10614,-0.318405 -0.955223,-0.318405 -0.849079,0 -0.95522,0.03538 -0.95522,0.318405 0,0.212271 0.106141,0.318406 0.318411,0.318406 0.283022,0 0.318402,0.106135 0.318402,0.955217 v 0.955216 h -0.955212 c -0.84909,0 -0.95522,0.03538 -0.95522,0.318406 0,0.21227 0.10613,0.318406 0.3184,0.318406 0.21228,0 0.31841,0.106135 0.31841,0.318405 0,0.265338 0.10614,0.318406 0.636809,0.318406 0.530681,0 0.636813,-0.05307 0.636813,-0.318406 0,-0.21227 0.106137,-0.318405 0.318407,-0.318405 0.26534,0 0.318403,0.106135 0.318403,0.636811 0,0.530675 -0.0531,0.636815 -0.318403,0.636815 -0.26534,0 -0.318407,0.10613 -0.318407,0.63681 0,0.53067 -0.0531,0.63681 -0.318402,0.63681 -0.21227,0 -0.318411,0.10613 -0.318411,0.3184 0,0.26534 -0.106129,0.31841 -0.636809,0.31841 h -0.63681 v -0.63681 c 0,-0.53068 0.0531,-0.63681 0.318399,-0.63681 0.212281,0 0.318411,-0.10614 0.318411,-0.31841 0,-0.21227 -0.10613,-0.3184 -0.318411,-0.3184 -0.212269,0 -0.318399,-0.10614 -0.318399,-0.31841 0,-0.21227 -0.10614,-0.318405 -0.318409,-0.318405 -0.21227,0 -0.318401,-0.106135 -0.318401,-0.318406 0,-0.21227 -0.10614,-0.318405 -0.318409,-0.318405 -0.21227,0 -0.3184,0.106135 -0.3184,0.318405 0,0.212271 -0.106141,0.318406 -0.31841,0.318406 -0.21227,0 -0.3184,-0.106135 -0.3184,-0.318406 0,-0.265338 -0.106141,-0.318405 -0.63682,-0.318405 -0.53067,0 -0.63681,0.05307 -0.63681,0.318405 0,0.212271 0.10614,0.318406 0.318409,0.318406 0.212271,0 0.318401,0.106135 0.318401,0.318405 0,0.21227 0.10614,0.31841 0.318409,0.31841 0.283031,0 0.318411,0.10613 0.318411,0.95521 0,0.84908 -0.0354,0.95522 -0.318411,0.95522 -0.212269,0 -0.318409,-0.10614 -0.318409,-0.31841 0,-0.21227 -0.10613,-0.3184 -0.318401,-0.3184 -0.212269,0 -0.318409,0.10613 -0.318409,0.3184 0,0.21227 -0.10613,0.31841 -0.318401,0.31841 -0.212269,0 -0.318409,-0.10614 -0.318409,-0.31841 z m 5.094488,-0.63681 c 0,-0.21227 -0.106129,-0.3184 -0.318399,-0.3184 -0.21227,0 -0.31841,0.10613 -0.31841,0.3184 0,0.21227 0.10614,0.31841 0.31841,0.31841 0.21227,0 0.318399,-0.10614 0.318399,-0.31841 z m -3.820868,-0.63681 c 0,-0.21227 -0.10613,-0.3184 -0.318401,-0.3184 -0.212269,0 -0.318409,0.10613 -0.318409,0.3184 0,0.21227 0.10614,0.31841 0.318409,0.31841 0.212271,0 0.318401,-0.10614 0.318401,-0.31841 z m 1.910439,-2.865649 c 0,-0.530676 -0.0531,-0.636811 -0.318409,-0.636811 -0.265341,0 -0.3184,0.106135 -0.3184,0.636811 0,0.530676 0.0531,0.636811 0.3184,0.636811 0.26534,0 0.318409,-0.106135 0.318409,-0.636811 z m 1.27362,-0.318405 c 0,-0.212271 -0.10613,-0.318406 -0.318411,-0.318406 -0.212269,0 -0.318399,0.106135 -0.318399,0.318406 0,0.21227 0.10613,0.318405 0.318399,0.318405 0.212281,0 0.318411,-0.106135 0.318411,-0.318405 z m -3.820869,-1.273623 c 0,-0.849081 -0.0354,-0.955217 -0.318401,-0.955217 -0.283029,0 -0.318409,0.106136 -0.318409,0.955217 0,0.849082 0.0354,0.955217 0.318409,0.955217 0.28302,0 0.318401,-0.106135 0.318401,-0.955217 z m -1.27362,0 c 0,-0.21227 -0.10613,-0.318405 -0.318401,-0.318405 -0.21228,0 -0.318409,0.106135 -0.318409,0.318405 0,0.212271 0.106129,0.318406 0.318409,0.318406 0.212271,0 0.318401,-0.106135 0.318401,-0.318406 z m 8.278551,-0.636811 c 0,-0.21227 -0.106141,-0.318406 -0.318411,-0.318406 -0.212269,0 -0.318399,0.106136 -0.318399,0.318406 0,0.21227 0.10613,0.318406 0.318399,0.318406 0.21227,0 0.318411,-0.106136 0.318411,-0.318406 z m -5.731301,-1.910434 c 0,-0.21227 -0.106141,-0.318405 -0.318411,-0.318405 -0.212269,0 -0.318409,0.106135 -0.318409,0.318405 0,0.212271 0.10614,0.318406 0.318409,0.318406 0.21227,0 0.318411,-0.106135 0.318411,-0.318406 z m 0.63681,8.278542 c 0,-0.21227 0.10613,-0.3184 0.3184,-0.3184 0.212269,0 0.318409,0.10613 0.318409,0.3184 0,0.21227 -0.10614,0.31841 -0.318409,0.31841 -0.21227,0 -0.3184,-0.10614 -0.3184,-0.31841 z m 0,-1.27362 c 0,-0.21227 0.10613,-0.3184 0.3184,-0.3184 0.212269,0 0.318409,0.10613 0.318409,0.3184 0,0.21227 -0.10614,0.31841 -0.318409,0.31841 -0.21227,0 -0.3184,-0.10614 -0.3184,-0.31841 z m 0,-5.094488 c 0,-0.21227 0.10613,-0.318406 0.3184,-0.318406 0.212269,0 0.318409,0.106136 0.318409,0.318406 0,0.21227 -0.10614,0.318406 -0.318409,0.318406 -0.21227,0 -0.3184,-0.106136 -0.3184,-0.318406 z m -5.09449,-1.273622 c 0,-0.212271 0.106129,-0.318406 0.3184,-0.318406 0.21227,0 0.31841,0.106135 0.31841,0.318406 0,0.21227 -0.10614,0.318405 -0.31841,0.318405 -0.212271,0 -0.3184,-0.106135 -0.3184,-0.318405 z m -2.547251,-3.184056 v -2.22884 h 2.228841 2.22884 v 2.22884 2.228839 h -2.22884 -2.228841 z m 3.820871,0 v -1.592028 h -1.59203 -1.592031 v 1.592028 1.592028 h 1.592031 1.59203 z m -2.547251,0 v -0.955217 h 0.955221 0.95522 v 0.955217 0.955216 h -0.95522 -0.955221 z m 7.64174,0 v -2.22884 h 2.228839 2.228842 v 2.22884 2.228839 h -2.228842 -2.228839 z m 3.820872,0 v -1.592028 h -1.592033 -1.592029 v 1.592028 1.592028 h 1.592029 1.592033 z m -2.547253,0 v -0.955217 h 0.95522 0.955223 v 0.955217 0.955216 h -0.955223 -0.95522 z m -5.094488,0.636811 c 0,-0.212271 0.10614,-0.318406 0.318409,-0.318406 0.212271,0 0.318401,0.106135 0.318401,0.318406 0,0.21227 -0.10613,0.318405 -0.318401,0.318405 -0.212269,0 -0.318409,-0.106135 -0.318409,-0.318405 z m 0.63681,-1.273623 c 0,-0.21227 -0.10613,-0.318405 -0.318401,-0.318405 -0.212269,0 -0.318409,-0.106135 -0.318409,-0.318406 0,-0.21227 0.10614,-0.318405 0.318409,-0.318405 0.212271,0 0.318401,-0.106136 0.318401,-0.318406 0,-0.265338 0.10614,-0.318406 0.63681,-0.318406 h 0.63682 v 0.636812 c 0,0.530676 -0.0531,0.636811 -0.318411,0.636811 -0.212269,0 -0.318409,0.106135 -0.318409,0.318405 0,0.212271 -0.10613,0.318406 -0.318401,0.318406 -0.212269,0 -0.318409,-0.106135 -0.318409,-0.318406 z m 0.63681,-0.636811 c 0,-0.21227 -0.10613,-0.318405 -0.318401,-0.318405 -0.212269,0 -0.318409,0.106135 -0.318409,0.318405 0,0.212271 0.10614,0.318406 0.318409,0.318406 0.212271,0 0.318401,-0.106135 0.318401,-0.318406 z m 1.27363,0 c 0,-0.21227 0.10613,-0.318405 0.3184,-0.318405 0.212269,0 0.318409,0.106135 0.318409,0.318405 0,0.212271 -0.10614,0.318406 -0.318409,0.318406 -0.21227,0 -0.3184,-0.106135 -0.3184,-0.318406 z"
       style="fill:#4b4b4b;fill-opacity:1;stroke-width:0.1592028" />
  </g>
</svg>
