<svg id="svg8" xmlns="http://www.w3.org/2000/svg" viewBox="0 0 48 48"><title>af_knownVuls</title><path d="M37.55,32.13a1.27,1.27,0,0,0-.43,0v-1.5h7.94a1.3,1.3,0,0,0,0-2.59H37.12V26.71a1.24,1.24,0,0,0,.18,0l.25,0c3.44-.67,7.38-5,8.61-9.4a1.3,1.3,0,1,0-2.5-.7c-1,3.7-4.35,7.06-6.55,7.53V20.58a1.3,1.3,0,0,0-1.3-1.3H33.54c0-1.14,0-3.88,0-5a9.24,9.24,0,0,0-18.47,0,1.3,1.3,0,1,0,2.59,0,6.64,6.64,0,0,1,13.29,0c0,1.08,0,3.81,0,5H13.14a1.3,1.3,0,0,0-1.3,1.3v3.57c-2.2-.49-5.51-3.84-6.53-7.53a1.3,1.3,0,1,0-2.5.7C4,21.75,8,26.06,11.43,26.72l.25,0a1.24,1.24,0,0,0,.17,0V28H3.65a1.3,1.3,0,1,0,0,2.59h8.2v1.5a1.26,1.26,0,0,0-.42,0c-3.44.67-7.38,5-8.61,9.4a1.3,1.3,0,1,0,2.5.7c1-3.69,4.33-7,6.53-7.53v2.84a1.3,1.3,0,0,0,1.3,1.3H35.82a1.3,1.3,0,0,0,1.3-1.3V34.69c2.2.48,5.52,3.83,6.55,7.53a1.3,1.3,0,1,0,2.5-.7C44.93,37.1,41,32.79,37.55,32.13Zm-3,4.11H14.44V21.88H34.52Z"/><circle cx="24.5" cy="28.82" r="2.44"/></svg>