<svg id="svg8" xmlns="http://www.w3.org/2000/svg" viewBox="0 0 48 48"><title>af_nonfreeDependencies</title><ellipse cx="10.87" cy="17.97" rx="1.49" ry="1.46"/><path d="M34.73,9.72a1.3,1.3,0,0,0-1.3,1.3V33.07l-7.19-5.52a12,12,0,1,0-1.67,2l8.29,6.37a1.27,1.27,0,0,0,.56.23v6.4a1.3,1.3,0,1,0,2.59,0V11A1.3,1.3,0,0,0,34.73,9.72ZM16.33,30.27a9.33,9.33,0,1,1,9.33-9.33A9.34,9.34,0,0,1,16.33,30.27Z"/><path d="M41.67,9.72a1.3,1.3,0,0,0-1.3,1.3V42.54a1.3,1.3,0,1,0,2.59,0V11A1.3,1.3,0,0,0,41.67,9.72Z"/><ellipse cx="10.87" cy="23.81" rx="1.49" ry="1.46"/><path d="M20.08,22.43A1.74,1.74,0,0,1,18.13,24h0a1.93,1.93,0,0,1-1.38-.59,3.12,3.12,0,0,1-.78-2.32c.06-1.94.8-2.92,2.2-2.92h.18a1.68,1.68,0,0,1,1.83,1.44v.07h2.28v-.09c0-2.34-2.36-3.48-4-3.5h-.28c-2.72,0-4.62,2.05-4.62,5A5.23,5.23,0,0,0,15,24.77a4.41,4.41,0,0,0,3.14,1.29h0a4.19,4.19,0,0,0,4.43-3.6l0-.1H20.09Z"/></svg>