<svg id="svg8" xmlns="http://www.w3.org/2000/svg" viewBox="0 0 48 48"><title>af_nonfreeAssets</title><path d="M17.08,18.06h0a1.87,1.87,0,0,1,1.86,1.87h0a1.87,1.87,0,0,1-1.86,1.87h0a1.87,1.87,0,0,1-1.86-1.87h0A1.87,1.87,0,0,1,17.08,18.06Z"/><path d="M17.08,26.28h0a1.87,1.87,0,0,1,1.86,1.87h0A1.87,1.87,0,0,1,17.08,30h0a1.87,1.87,0,0,1-1.86-1.87h0A1.87,1.87,0,0,1,17.08,26.28Z"/><path d="M33.18,22H30a2.68,2.68,0,0,0-3-2.27h-.18c-2.4,0-3.35,1.82-3.43,4.5s1.54,4.54,3.43,4.5a2.73,2.73,0,0,0,3-2.44h3.56c-.59,3.34-3,5.29-6.53,5.3-3.94,0-6.8-3.29-6.8-7.36,0-4.34,2.85-7.36,6.8-7.36h.43c2.46,0,5.81,1.77,5.81,5.13Z"/><path d="M39.29,7.11h-30A3.85,3.85,0,0,0,6.44,8.37h0v0a3.59,3.59,0,0,0-.9,2.37V37.63a3.75,3.75,0,0,0,3.8,3.68h30a3.75,3.75,0,0,0,3.8-3.68V10.79A3.75,3.75,0,0,0,39.29,7.11Zm.19,2.6a1.86,1.86,0,1,1-1.85,1.86A1.85,1.85,0,0,1,39.48,9.71Zm0,8.22a1.86,1.86,0,1,1-1.85,1.86A1.85,1.85,0,0,1,39.48,17.94ZM9.06,38.34h0a1.87,1.87,0,0,1,0-3.75h0a1.87,1.87,0,0,1,0,3.75Zm0-8.29h0a1.87,1.87,0,0,1,0-3.75h0a1.87,1.87,0,0,1,0,3.75Zm0-8.29h0a1.87,1.87,0,0,1,0-3.75h0a1.87,1.87,0,0,1,0,3.75Zm0-8.29h0a1.87,1.87,0,0,1,0-3.75h0a1.87,1.87,0,0,1,0,3.75ZM36,38.71H12.23V9.7H36Zm3.51-.38a1.87,1.87,0,1,1,1.86-1.87A1.87,1.87,0,0,1,39.48,38.34Zm0-8.29a1.87,1.87,0,1,1,1.86-1.87A1.87,1.87,0,0,1,39.48,30Z"/></svg>