<svg id="svg8" xmlns="http://www.w3.org/2000/svg" viewBox="0 0 48 48"><title>af_noNewReleases</title><path d="M42,31.65H40.6V21.46a1.24,1.24,0,0,0,0-.26,16.08,16.08,0,0,0-32.16.05,1.31,1.31,0,0,0,0,.21v10.2H6.9a1.3,1.3,0,0,0-1.3,1.3v7.36a1.3,1.3,0,0,0,1.3,1.3H42a1.3,1.3,0,0,0,1.3-1.3V32.95A1.3,1.3,0,0,0,42,31.65Zm-31-10a1.3,1.3,0,0,0,0-.18,13.49,13.49,0,0,1,27,0,1.24,1.24,0,0,0,0,.24v10H11ZM40.74,39H8.2V34.25H40.74Z"/><path d="M28.27,16.23a1.3,1.3,0,0,0-1.82,1.85l3.9,3.82-3.9,3.82a1.3,1.3,0,0,0,1.82,1.85l4.84-4.75a1.3,1.3,0,0,0,0-1.85Z"/><path d="M22.52,16.25a1.3,1.3,0,0,0-1.83,0L15.84,21a1.3,1.3,0,0,0,0,1.85l4.84,4.75a1.3,1.3,0,0,0,1.82-1.85L18.6,21.9l3.9-3.82A1.3,1.3,0,0,0,22.52,16.25Z"/></svg>