<svg id="svg8" xmlns="http://www.w3.org/2000/svg" viewBox="0 0 48 48"><title>af_NSFW</title><path d="m39.528 24.587c.01728-.19.01728-.39727.01728-.58727 0-9.5345-7.7382-17.273-17.273-17.273-9.5345 0-17.273 7.7382-17.273 17.273 0 8.93 6.7882 16.288 15.476 17.186-1.6064-1.2609-2.9709-2.8327-4.0073-4.6291-4.7327-2.1936-8.0145-6.9955-8.0145-12.557 0-3.1955 1.0882-6.1318 2.9191-8.4636l9.7764 9.7764c.96727-.69091 2.0209-1.2609 3.1436-1.7273l-10.485-10.485c2.3318-1.8309 5.2682-2.9191 8.4636-2.9191 7.3236 0 13.3 5.6827 13.784 12.868 1.2264.38 2.4009.89818 3.4718 1.5373zm-8.6191 1.14c-5.4927 0-10.191 3.23-12.091 7.7727 1.9 4.5427 6.5982 7.7727 12.091 7.7727s10.191-3.23 12.091-7.7727c-1.9-4.5427-6.5982-7.7727-12.091-7.7727zm0 12.091c-2.3836 0-4.3182-1.9345-4.3182-4.3182s1.9345-4.3182 4.3182-4.3182c2.3836 0 4.3182 1.9345 4.3182 4.3182s-1.9345 4.3182-4.3182 4.3182zm2.5909-4.3182c0 1.4336-1.1573 2.5909-2.5909 2.5909-1.4336 0-2.5909-1.1573-2.5909-2.5909 0-1.4336 1.1573-2.5909 2.5909-2.5909 1.4336 0 2.5909 1.1573 2.5909 2.5909z"/></svg>
