<svg
   id="svg8"
   viewBox="0 0 48 48"
   version="1.1"
   xmlns="http://www.w3.org/2000/svg"
   xmlns:svg="http://www.w3.org/2000/svg"
   xmlns:rdf="http://www.w3.org/1999/02/22-rdf-syntax-ns#"
   xmlns:cc="http://creativecommons.org/ns#"
   xmlns:dc="http://purl.org/dc/elements/1.1/">
  <defs
     id="defs27" />
  <title
     id="title2">af_nonfreeNetwork</title>
  <path
     d="M13.65,31.74H13a10.63,10.63,0,0,1,0-21.25C15.18,7.25,19.22,4.1,23.66,3.9h0c6.23-.23,11.08,3.49,13.09,10a8.91,8.91,0,0,1,0,17.82H13.65Zm-.44-18.68A8,8,0,0,0,13,29.14H36.69a6.32,6.32,0,0,0-.23-12.64l-.54,0-1.11.11-.27-1.08c-.72-2.82-3.19-9.35-10.76-9.07h0c-3.23.14-7,2.61-9.06,6l-.42.67-.78-.06Z"
     id="path4" />
  <g
     id="g3476"
     transform="translate(-2)">
    <rect
       style="fill:#000000;fill-opacity:1;stroke:none;stroke-width:1.00936"
       id="rect1331"
       width="2.5"
       height="6"
       x="13.5"
       y="31.6" />
    <circle
       style="fill:none;fill-opacity:1;stroke:#000000;stroke-width:2.5;stroke-dasharray:none;stroke-opacity:1"
       id="path2486"
       cx="14.75"
       cy="40.927402"
       r="2.5" />
  </g>
  <g
     id="g3482"
     transform="translate(12)">
    <rect
       style="fill:#000000;fill-opacity:1;stroke:none;stroke-width:1.00936"
       id="rect3478"
       width="2.5"
       height="6"
       x="13.5"
       y="31.6" />
    <circle
       style="fill:none;fill-opacity:1;stroke:#000000;stroke-width:2.5;stroke-dasharray:none;stroke-opacity:1"
       id="circle3480"
       cx="14.75"
       cy="40.927402"
       r="2.5" />
  </g>
  <g
     id="g5015"
     transform="translate(-2)">
    <rect
       style="fill:#000000;fill-opacity:1;stroke:none;stroke-width:0.582211"
       id="rect3553"
       width="2.5"
       height="1.9962732"
       x="20.365015"
       y="31.603727" />
    <circle
       style="fill:none;fill-opacity:1;stroke:#000000;stroke-width:2.5;stroke-dasharray:none;stroke-opacity:1"
       id="circle3555"
       cx="21.615015"
       cy="36.927402"
       r="2.5" />
  </g>
  <g
     id="g5021"
     transform="translate(12)">
    <rect
       style="fill:#000000;fill-opacity:1;stroke:none;stroke-width:0.582211"
       id="rect5017"
       width="2.5"
       height="1.9962732"
       x="20.365015"
       y="31.603727" />
    <circle
       style="fill:none;fill-opacity:1;stroke:#000000;stroke-width:2.5;stroke-dasharray:none;stroke-opacity:1"
       id="circle5019"
       cx="21.615015"
       cy="36.927402"
       r="2.5" />
  </g>
  <metadata
     id="metadata5060">
    <rdf:RDF>
      <cc:Work
         rdf:about="">
        <dc:title>af_nonfreeNetwork</dc:title>
      </cc:Work>
    </rdf:RDF>
  </metadata>
  <rect
     style="fill:none;fill-opacity:1;stroke:#000000;stroke-width:2.5;stroke-linejoin:round;stroke-dasharray:none;stroke-opacity:1"
     id="rect6536"
     width="9"
     height="7"
     x="19.25"
     y="18.25" />
  <g
     id="g8725"
     transform="translate(-2,3.1605981)">
    <path
       style="fill:none;fill-opacity:1;stroke:#000000;stroke-width:2.5;stroke-linejoin:round;stroke-dasharray:none;stroke-opacity:1"
       id="path7264"
       d="m 22.743788,13.002923 a 3.0002635,3.1930659 0 0 1 3.000263,-3.1930659 3.0002635,3.1930659 0 0 1 3.000263,3.1930659" />
    <rect
       style="fill:#000000;fill-opacity:1;stroke:none;stroke-width:2.5;stroke-linejoin:miter;stroke-dasharray:none;stroke-opacity:1"
       id="rect7992"
       width="2.5"
       height="2"
       x="21.492001"
       y="13" />
    <rect
       style="fill:#000000;fill-opacity:1;stroke:none;stroke-width:2.5;stroke-linejoin:miter;stroke-dasharray:none;stroke-opacity:1"
       id="rect8720"
       width="2.5"
       height="2"
       x="27.492001"
       y="13" />
  </g>
</svg>
