<svg id="svg8" xmlns="http://www.w3.org/2000/svg" viewBox="0 0 48 48"><title>af_tracking</title><path d="M6.32,34.68a2.83,2.83,0,0,1-2.54-1.4,3.12,3.12,0,0,1,.12-3.16L9.68,20.3l.25-.45c.72-1.31,1.25-1.49,2.82-1.5h0l20.2-.06h0c1.48,0,2,.2,2.73,1.43l.29.49L42.12,30a3.07,3.07,0,0,1,.17,3.14,2.88,2.88,0,0,1-2.58,1.44l-33.38.06Zm6-13.72-.08.15-.29.51L6.13,31.44A.62.62,0,0,0,6,32c0,.08.24.09.29.09h0L39.71,32c.08,0,.26,0,.31-.11a.57.57,0,0,0-.1-.52l-6.11-9.82c-.14-.22-.25-.41-.34-.57l-.07-.12H33l-20.2.06Z"/><path d="M22.94,18.19a8,8,0,0,0-8.2,7.89A8,8,0,0,0,22.94,34a8,8,0,0,0,8.2-7.89A8,8,0,0,0,22.94,18.19Zm0,12.93a5,5,0,1,1,5.26-5A5.16,5.16,0,0,1,22.94,31.12Z"/><path d="M22.94,24h0a2.1,2.1,0,0,1,2.14,2.05h0a2.1,2.1,0,0,1-2.14,2.05h0a2.1,2.1,0,0,1-2.14-2.05h0A2.1,2.1,0,0,1,22.94,24Z"/><path d="M42.91,29.16a6.72,6.72,0,0,1-3.12-1c-.71-.39-4.24-2.45-4.23-4.5s3.48-4,4.18-4.42c2.92-1.6,3.94-.94,4.28-.73,1.24.79,1.48,3.31,1.47,5.28,0,2.77-.51,4.49-1.49,5.1A1.89,1.89,0,0,1,42.91,29.16Zm-.44-2.36Zm-4.26-3.18a10.84,10.84,0,0,0,4.39,2.91,13.3,13.3,0,0,0,0-5.75A10.64,10.64,0,0,0,38.21,23.62Zm-.08.15Zm0-.3Zm4.74-2.72h0Zm-.4-.23Z"/><path d="M42.82,42.72H3.15A1.3,1.3,0,0,1,2,40.79l3.49-6.2a2.72,2.72,0,0,1-1.74-1.3,3.12,3.12,0,0,1,.12-3.16L9.68,20.3l.25-.45c.72-1.31,1.25-1.49,2.82-1.5h1.91L21.51,6.17a1.3,1.3,0,0,1,1.12-.66,1.28,1.28,0,0,1,1.13.64L30.85,18.3h2.1c1.52,0,2.06.18,2.77,1.43.08.14.17.3.29.49L42.12,30a3.07,3.07,0,0,1,.17,3.14,2.8,2.8,0,0,1-2,1.38l3.62,6.2a1.3,1.3,0,0,1-1.12,1.95ZM5.37,40.13H40.56L37,34A1.3,1.3,0,0,1,38.1,32h1.61c.08,0,.26,0,.31-.11a.57.57,0,0,0-.1-.52l-6.11-9.82c-.14-.23-.25-.41-.34-.57l-.07-.12h-3.3A1.31,1.31,0,0,1,29,20.26L22.66,9.42,16.54,20.28a1.3,1.3,0,0,1-1.13.66H12.29l-.08.15-.29.51L6.13,31.44A.62.62,0,0,0,6,32c0,.08.24.09.29.09H7.68A1.3,1.3,0,0,1,8.81,34Z"/></svg>