<svg id="svg8" xmlns="http://www.w3.org/2000/svg" viewBox="0 0 48 48"><title>af_nonfreeUpstream</title><ellipse cx="17.58" cy="22.64" rx="1.86" ry="1.87"/><ellipse cx="17.58" cy="29.24" rx="1.86" ry="1.87"/><path d="M20.28,26.12c0,4.06,2.85,7.37,6.8,7.36,3.49,0,5.94-2,6.53-5.3H30a2.73,2.73,0,0,1-3,2.44c-1.89,0-3.51-1.7-3.43-4.5s1-4.5,3.43-4.5h.18a2.68,2.68,0,0,1,3,2.27h3.18c0-3.36-3.35-5.08-5.81-5.13h-.43C23.13,18.76,20.28,21.78,20.28,26.12Z"/><path d="M43.56,19.07,25,9.08a1.3,1.3,0,0,0-1.22,0L5.45,18.8a1.3,1.3,0,0,0,1.22,2.29l3.53-1.88V36.67a3.07,3.07,0,0,0,3.16,3H35.64a3.07,3.07,0,0,0,3.16-3V19.46l3.53,1.9a1.3,1.3,0,0,0,1.23-2.28Zm-7.35,17.6c0,.17-.24.36-.57.36H13.36c-.32,0-.57-.19-.57-.36V17.95s0-.07,0-.1l11.58-6.15,11.85,6.37Z"/></svg>