<?xml version="1.0" standalone="no"?>
<!DOCTYPE svg PUBLIC "-//W3C//DTD SVG 20010904//EN"
 "http://www.w3.org/TR/2001/REC-SVG-20010904/DTD/svg10.dtd">
<svg version="1.0" xmlns="http://www.w3.org/2000/svg"
 width="700.000000pt" height="700.000000pt" viewBox="0 0 700.000000 700.000000"
 preserveAspectRatio="xMidYMid meet">
<metadata>
Created by potrace 1.11, written by Peter Selinger 2001-2013
</metadata>
<g transform="translate(0.000000,700.000000) scale(0.100000,-0.100000)"
fill="#000000" stroke="none">
<path d="M310 6803 c-72 -31 -111 -87 -112 -161 -1 -74 17 -194 35 -228 8 -16
116 -161 239 -321 124 -160 230 -305 237 -322 18 -41 27 -39 35 7 17 107 121
242 224 292 28 14 51 27 52 30 0 10 -471 616 -511 656 -60 61 -129 77 -199 47z"/>
<path d="M6580 6813 c-54 -11 -109 -70 -350 -383 -137 -179 -250 -327 -250
-330 0 -3 23 -16 51 -30 108 -52 206 -183 227 -301 l8 -44 24 45 c12 25 119
169 236 321 117 152 223 293 235 313 20 35 42 157 42 241 1 101 -116 189 -223
168z"/>
<path d="M1048 5964 c-124 -29 -240 -118 -286 -216 -39 -85 -43 -157 -40 -720
4 -517 4 -535 26 -598 54 -164 173 -268 349 -305 102 -22 4704 -22 4806 0 184
39 309 155 358 330 11 40 14 165 14 630 l0 580 -24 60 c-44 109 -161 205 -296
241 -76 21 -4823 19 -4907 -2z m1196 -410 c77 -27 137 -64 196 -124 189 -188
199 -474 23 -670 -125 -139 -306 -196 -479 -152 -102 27 -165 62 -234 132 -99
98 -144 205 -144 340 0 231 154 427 382 485 69 18 187 13 256 -11z m2848 -3
c206 -71 338 -255 338 -471 0 -131 -49 -248 -142 -341 -96 -96 -209 -143 -348
-143 -139 0 -252 47 -348 143 -94 94 -142 209 -142 341 0 245 171 446 420 494
47 9 165 -3 222 -23z"/>
<path d="M1115 4083 c-171 -23 -311 -142 -372 -315 -17 -51 -18 -123 -18
-1623 0 -1502 1 -1573 19 -1638 44 -159 167 -275 336 -318 82 -21 4758 -21
4840 0 171 43 292 157 336 318 18 65 19 136 19 1638 0 1500 -1 1572 -18 1623
-52 148 -142 240 -293 298 -47 18 -125 19 -2434 20 -1312 1 -2398 -1 -2415 -3z"/>
</g>
</svg>
