<?xml version="1.0" encoding="UTF-8" standalone="no"?>
<svg
   xmlns:dc="http://purl.org/dc/elements/1.1/"
   xmlns:cc="http://creativecommons.org/ns#"
   xmlns:rdf="http://www.w3.org/1999/02/22-rdf-syntax-ns#"
   xmlns:svg="http://www.w3.org/2000/svg"
   xmlns="http://www.w3.org/2000/svg"
   id="svg6602"
   version="1.1"
   viewBox="0 0 8.4666662 8.4666662"
   height="8.4666662mm"
   width="8.4666662mm">
  <defs
     id="defs6596" />
  <metadata
     id="metadata6599">
    <rdf:RDF>
      <cc:Work
         rdf:about="">
        <dc:format>image/svg+xml</dc:format>
        <dc:type
           rdf:resource="http://purl.org/dc/dcmitype/StillImage" />
        <dc:title></dc:title>
      </cc:Work>
    </rdf:RDF>
  </metadata>
  <g
     transform="translate(-24.492857,-72.784524)"
     id="layer1">
    <g
       transform="matrix(0.26458333,0,0,0.26458333,24.492857,72.784524)"
       id="ic_link_black_24px-(1)"
       style="fill:none;fill-rule:evenodd;stroke:none;stroke-width:1">
      <polygon
         points="0,0 32,0 32,32 0,32 "
         id="polygon6572" />
      <path
         style="fill:#000000;fill-rule:nonzero"
         id="path6574"
         d="m 5.2,16 c 0,-2.28 1.8533333,-4.133333 4.1333333,-4.133333 H 14.666667 V 9.3333333 H 9.3333333 c -3.68,0 -6.6666666,2.9866667 -6.6666666,6.6666667 0,3.68 2.9866666,6.666667 6.6666666,6.666667 H 14.666667 V 20.133333 H 9.3333333 C 7.0533333,20.133333 5.2,18.28 5.2,16 Z m 5.466667,1.333333 H 21.333333 V 14.666667 H 10.666667 Z m 12,-7.9999997 h -5.333334 v 2.5333337 h 5.333334 C 24.946667,11.866667 26.8,13.72 26.8,16 c 0,2.28 -1.853333,4.133333 -4.133333,4.133333 h -5.333334 v 2.533334 h 5.333334 c 3.68,0 6.666666,-2.986667 6.666666,-6.666667 0,-3.68 -2.986666,-6.6666667 -6.666666,-6.6666667 z" />
    </g>
  </g>
</svg>
