<?xml version="1.0" encoding="UTF-8" standalone="no"?>
<svg
   xmlns:dc="http://purl.org/dc/elements/1.1/"
   xmlns:cc="http://creativecommons.org/ns#"
   xmlns:rdf="http://www.w3.org/1999/02/22-rdf-syntax-ns#"
   xmlns:svg="http://www.w3.org/2000/svg"
   xmlns="http://www.w3.org/2000/svg"
   id="svg6602"
   version="1.1"
   viewBox="0 0 8.4666662 8.4666662"
   height="8.4666662mm"
   width="8.4666662mm">
  <defs
     id="defs6596" />
  <metadata
     id="metadata6599">
    <rdf:RDF>
      <cc:Work
         rdf:about="">
        <dc:format>image/svg+xml</dc:format>
        <dc:type
           rdf:resource="http://purl.org/dc/dcmitype/StillImage" />
        <dc:title></dc:title>
      </cc:Work>
    </rdf:RDF>
  </metadata>
  <g
     transform="translate(-24.492857,-72.784524)"
     id="layer1">
    <g
       transform="matrix(0.26458333,0,0,0.26458333,24.492857,72.784524)"
       id="ic_link_black_24px-(1)"
       style="fill:none;fill-rule:evenodd;stroke:none;stroke-width:1">
      <g
         transform="translate(-2.0000006,-2.0000006)"
         id="ic_signal_wifi_off_black_24px-copy"
         style="fill:none;fill-rule:evenodd;stroke:none;stroke-width:1">
        <polygon
           points="0,36 0,0 36,0 36,36 "
           id="Shape" />
        <path
           style="fill:#000000;fill-rule:nonzero"
           id="path6430"
           d="m 30.315789,11.986147 c -0.494438,-0.38537 -5.416847,-4.5337673 -12.789473,-4.5337673 -1.648128,0 -3.175394,0.2153539 -4.559821,0.5440521 L 24.316603,19.693551 Z M 23.064026,21.303038 7.9342105,5.6842105 6.5387954,7.135016 8.7912371,9.4699061 C 6.4399078,10.580679 4.9895551,11.782127 4.7368421,11.986147 l 12.7784859,16.423571 0.01099,0.01133 0.01099,-0.01133 4.285133,-5.508527 3.647857,3.763027 1.395415,-1.439471 z" />
      </g>
    </g>
  </g>
</svg>
