<?xml version="1.0" encoding="UTF-8" standalone="no"?>
<svg
   xmlns:dc="http://purl.org/dc/elements/1.1/"
   xmlns:cc="http://creativecommons.org/ns#"
   xmlns:rdf="http://www.w3.org/1999/02/22-rdf-syntax-ns#"
   xmlns:svg="http://www.w3.org/2000/svg"
   xmlns="http://www.w3.org/2000/svg"
   id="svg6602"
   version="1.1"
   viewBox="0 0 8.4666662 8.4666662"
   height="8.4666662mm"
   width="8.4666662mm">
  <defs
     id="defs6596" />
  <metadata
     id="metadata6599">
    <rdf:RDF>
      <cc:Work
         rdf:about="">
        <dc:format>image/svg+xml</dc:format>
        <dc:type
           rdf:resource="http://purl.org/dc/dcmitype/StillImage" />
        <dc:title></dc:title>
      </cc:Work>
    </rdf:RDF>
  </metadata>
  <g
     transform="translate(-24.492857,-72.784524)"
     id="layer1">
    <g
       transform="matrix(0.26458333,0,0,0.26458333,24.492857,72.784524)"
       id="ic_link_black_24px-(1)"
       style="fill:none;fill-rule:evenodd;stroke:none;stroke-width:1">
      <polygon
         points="32,32 0,32 0,0 32,0 "
         id="polygon6572" />
      <path
         id="path6566"
         d="M 14.916666,11.666666 H 13.833332 V 9.4999994 h 1.083334 v 1.0833326 h 2.166666 v 1.083334 h -1.083333 v 1.083333 h -1.083333 z m 2.166666,13 v -1.083334 h -1.083333 v 1.083334 z M 15.999999,8.4166664 V 7.3333328 h -2.166667 v 1.0833336 h 1.083334 v 1.083333 h 1.083333 z M 24.666666,7.3333328 V 13.833332 H 23.583332 V 12.749999 H 19.249999 V 7.3333328 Z M 23.583332,11.666666 V 8.4166664 h -3.25 V 11.666666 Z M 8.4166663,13.833332 h -1.083333 v 1.083334 h 2.166666 v -1.083334 z m 0,3.25 h 1.083333 v 1.083334 h 1.0833337 v -3.25 H 9.4999993 v 1.083333 h -2.166666 v 2.166667 h 1.083333 z m 5.4166657,1.083334 v 2.166666 h 1.083334 V 18.166666 Z M 18.166666,7.3333328 h -1.083334 v 3.2499992 h 1.083334 z m 0,5.4166662 v -1.083333 h -1.083334 v 1.083333 z m 3.25,-2.166667 h 1.083333 V 9.4999994 H 21.416666 Z M 10.583333,9.4999994 H 9.4999993 V 10.583332 H 10.583333 Z M 12.749999,7.3333328 V 12.749999 H 7.3333333 V 7.3333328 Z M 11.666666,8.4166664 H 8.4166663 v 3.2499996 h 3.2499997 z m 9.75,5.4166656 v 1.083334 h -1.083334 v -1.083334 h -2.166666 v 1.083334 h -1.083334 v -1.083334 h -3.25 v -1.083333 h -1.083333 v 1.083333 h -1.083333 v 1.083334 h 1.083333 v 2.166666 h 1.083333 v -1.083333 h 1.083334 v 2.166667 h 1.083333 v -2.166667 h 3.25 v 1.083333 h -2.166667 v 1.083334 h 2.166667 v 1.083333 h 1.083333 v -3.25 h 1.083334 v 1.083333 h 1.083333 v 2.166667 h 1.083333 v -1.083333 h 1.083334 v -1.083334 h -1.083334 v -1.083333 h -1.083333 v -1.083333 h 1.083333 V 13.833332 Z M 9.4999993,22.499999 H 10.583333 V 21.416666 H 9.4999993 Z m -2.166666,-3.25 h 5.4166657 v 5.416667 H 7.3333333 Z m 1.083333,4.333333 h 3.2499997 v -3.25 H 8.4166663 Z m 12.9999997,-3.25 v -1.083333 h -1.083334 v 1.083333 z m 0,1.083334 h -1.083334 v 1.083333 h -1.083333 v -1.083333 h -1.083333 v -1.083334 h 1.083333 v -1.083333 h -2.166667 v -1.083333 h -1.083333 v 2.166666 h -1.083333 v 1.083334 h -1.083334 v 3.25 h 1.083334 v -1.083334 h 1.083333 v -1.083333 h 2.166667 v 2.166667 h 1.083333 v -1.083334 h 1.083333 v 1.083334 h 2.166667 v -1.083334 h 1.083333 v -1.083333 h -2.166666 z m -9.75,-3.25 h 1.083333 v -1.083334 h -1.083333 z m 10.833333,2.166666 v 1.083334 h 1.083333 v 1.083333 h 1.083334 v -3.25 h -1.083334 v 1.083333 z m 2.166667,4.333334 v -1.083334 h -1.083334 v 1.083334 z m 0,-8.666667 v -1.083333 h -1.083334 v 1.083333 z M 22.499999,5.1666661 h 4.333333 v 4.3333333 h 2.166667 v -6.5 h -6.5 z M 5.1666663,9.4999994 V 5.1666661 h 4.333333 V 2.9999994 H 2.9999995 v 6.5 z M 9.4999993,26.833332 H 5.1666663 V 22.499999 H 2.9999995 v 6.5 H 9.4999993 Z M 26.833332,22.499999 v 4.333333 h -4.333333 v 2.166667 h 6.5 v -6.5 z"
         style="fill:#000000;fill-rule:nonzero;stroke:none;stroke-width:1" />
    </g>
  </g>
</svg>
