<?xml version="1.0" encoding="UTF-8" standalone="no"?>
<!-- Generator: Adobe Illustrator 28.2.0, SVG Export Plug-In . SVG Version: 6.00 Build 0)  -->

<svg
   version="1.1"
   id="svg1"
   inkscape:version="1.3.2 (091e20ef0f, 2023-11-25)"
   x="0px"
   y="0px"
   viewBox="0 0 639.5 170.6"
   style="enable-background:new 0 0 639.5 170.6;"
   xml:space="preserve"
   sodipodi:docname="Logo-NGI_Mobifree-Tag-RGB_Editable-text4e.svg"
   inkscape:export-filename="Logo-NGI_Mobifree-Tag-RGB_Editable-text4c.png"
   inkscape:export-xdpi="96"
   inkscape:export-ydpi="96"
   xmlns:inkscape="http://www.inkscape.org/namespaces/inkscape"
   xmlns:sodipodi="http://sodipodi.sourceforge.net/DTD/sodipodi-0.dtd"
   xmlns:xlink="http://www.w3.org/1999/xlink"
   xmlns="http://www.w3.org/2000/svg"
   xmlns:svg="http://www.w3.org/2000/svg"><defs
   id="defs5" />
<style
   type="text/css"
   id="style1">
	.st0{fill:url(#path2_00000173867015938752873560000004103777959706734999_);}
	.st1{clip-path:url(#SVGID_00000106840760661967040070000017040296838318090369_);fill:#FFFFFF;}
	.st2{clip-path:url(#SVGID_00000001646757160946414040000005778670468495803547_);fill:#FFFFFF;}
	.st3{clip-path:url(#SVGID_00000054976478850697239070000018012008579556588215_);fill:#FFFFFF;}
	.st4{fill:#569BAA;}
	.st5{font-family:'Montserrat-Bold';}
	.st6{font-size:41.2843px;}
	.st7{letter-spacing:13;}
</style>
<sodipodi:namedview
   bordercolor="#000000"
   borderopacity="0.25"
   id="namedview1"
   inkscape:current-layer="layer-MC0"
   inkscape:cx="227.52147"
   inkscape:cy="308.30808"
   inkscape:deskcolor="#d1d1d1"
   inkscape:pagecheckerboard="0"
   inkscape:pageopacity="0.0"
   inkscape:showpageshadow="2"
   inkscape:window-height="978"
   inkscape:window-maximized="0"
   inkscape:window-width="952"
   inkscape:window-x="960"
   inkscape:window-y="0"
   inkscape:zoom="0.60653616"
   pagecolor="#ffffff">
	
		<inkscape:page
   bleed="0"
   height="170.60001"
   id="page1"
   inkscape:export-filename="Logo-NGI_Mobifree-Tag-RGB_Editable-text4e.png"
   inkscape:export-xdpi="96"
   inkscape:export-ydpi="96"
   inkscape:label="1"
   margin="18.905867 1.9066666 18.905333 18.901867"
   width="639.5"
   x="0"
   y="0">
		</inkscape:page>
</sodipodi:namedview>
<g
   id="layer-MC0"
   inkscape:groupmode="layer"
   inkscape:label="Calque 1">
	
		<linearGradient
   id="path2_00000032611545185299658230000000571883985882460291_"
   gradientUnits="userSpaceOnUse"
   x1="-721.5402"
   y1="1090.4688"
   x2="-720.5402"
   y2="1090.4688"
   gradientTransform="matrix(-185.9401 180.6958 180.6958 185.9401 -330969.7812 -72387.6484)">
		<stop
   offset="0"
   style="stop-color:#ffed21;stop-opacity:1;"
   id="stop1" />
		<stop
   offset="1"
   style="stop-color:#ed1c61;stop-opacity:1;"
   id="stop2" />
	</linearGradient>
	<path
   id="path2"
   style="fill:url(#path2_00000032611545185299658230000000571883985882460291_);"
   d="M33.6,18.9   c-8.1,0-14.7,6.6-14.7,14.7l0,0V137c0,8.1,6.6,14.7,14.7,14.7l0,0h220c8.1,0,14.7-6.6,14.7-14.7l0,0v-24.3c0-2.7,1.1-5.3,3-7.2l0,0   l12.1-12.1c3.4-3.4,3.4-8.9,0-12.3l0,0l-12.1-12c-1.9-1.9-3-4.5-3-7.2l0,0V33.6c0-8.1-6.6-14.7-14.7-14.7l0,0H33.6z" />
	<g
   id="g2">
		<defs
   id="defs2">
			<rect
   id="SVGID_1_"
   x="0"
   y="0"
   width="554"
   height="170.6" />
		</defs>
		<clipPath
   id="SVGID_00000008853047201484722780000004634394563482157726_">
			<use
   xlink:href="#SVGID_1_"
   style="overflow:visible;"
   id="use2" />
		</clipPath>
		<path
   id="path3"
   style="clip-path:url(#SVGID_00000008853047201484722780000004634394563482157726_);fill:#FFFFFF;"
   d="    M234.7,42.8L234.7,42.8c5.4,0,9.8,4.4,9.8,9.8V118c0,5.4-4.4,9.8-9.8,9.8s-9.8-4.4-9.8-9.8V52.7C224.8,47.2,229.2,42.8,234.7,42.8    "
   clip-path="url(#SVGID_00000008853047201484722780000004634394563482157726_)" />
	</g>
	<g
   id="g3">
		<defs
   id="defs3">
			<rect
   id="SVGID_00000116220538060063305940000003883876268488863664_"
   x="0"
   y="0"
   width="554"
   height="170.6" />
		</defs>
		<clipPath
   id="SVGID_00000081616698126086758240000007031307733600984486_">
			<use
   xlink:href="#SVGID_00000116220538060063305940000003883876268488863664_"
   style="overflow:visible;"
   id="use3" />
		</clipPath>
		<path
   id="path5"
   style="clip-path:url(#SVGID_00000081616698126086758240000007031307733600984486_);fill:#FFFFFF;"
   d="M202.8,84    h-0.7c-0.1,0-0.2,0-0.3,0c-0.1,0-0.2,0-0.3,0h-9.7c-5.2,0-9.8,4-10.2,9.2c-0.4,5.7,4.2,10.5,9.8,10.5c1,0,1.8,1,1.5,2    c-0.9,2.8-3.1,5-6.1,5.8c-2.8,0.7-5.7,1.1-8.8,1.1c-5.3,0-10.1-1.2-14.3-3.5c-4.2-2.3-7.4-5.5-9.8-9.7c-2.3-4.1-3.5-8.8-3.5-14.1    c0-5.3,1.2-10.1,3.5-14.2c2.3-4.1,5.6-7.3,9.8-9.6c4.2-2.3,9-3.4,14.4-3.4c6.2,0,11.8,1.7,16.7,5.1c3.1,2.1,7.4,2.1,10.3-0.2    c4.6-3.7,4.4-10.7-0.4-13.9c-2.3-1.5-4.7-2.8-7.3-3.9c-6.1-2.5-12.8-3.8-20.3-3.8c-8.9,0-16.9,1.9-24,5.6    c-7.1,3.8-12.7,9-16.7,15.7c-4,6.7-6,14.2-6,22.6c0,8.4,2,16,6,22.6c4,6.7,9.5,11.9,16.6,15.7c7,3.8,15,5.6,23.8,5.6    c6.2,0,12.3-0.9,18.3-2.8c0.1,0,0.1,0,0.2-0.1c9.5-2.9,15.8-11.8,15.8-21.7V92.6C211.5,87.9,207.6,84,202.8,84"
   clip-path="url(#SVGID_00000081616698126086758240000007031307733600984486_)" />
	</g>
	<g
   id="g4">
		<defs
   id="defs4">
			<rect
   id="SVGID_00000150085820280207157970000010411523694699446463_"
   x="0"
   y="0"
   width="554"
   height="170.6" />
		</defs>
		<clipPath
   id="SVGID_00000151505896930187104570000011099133323361247657_">
			<use
   xlink:href="#SVGID_00000150085820280207157970000010411523694699446463_"
   style="overflow:visible;"
   id="use4" />
		</clipPath>
		<path
   id="path7"
   style="clip-path:url(#SVGID_00000151505896930187104570000011099133323361247657_);fill:#FFFFFF;"
   d="    M120.8,52.5v65.6c0,5.4-4.3,9.7-9.7,9.7h-1.8c-2.9,0-5.7-1.3-7.5-3.5L69.4,84.9c-2.4-2.9-7.2-1.2-7.2,2.6v30.6    c0,5.4-4.3,9.7-9.7,9.7c-5.4,0-9.7-4.3-9.7-9.7V52.5c0-5.4,4.3-9.7,9.7-9.7h2c2.9,0,5.7,1.3,7.5,3.6l32.2,39.3    c2.4,2.9,7.2,1.2,7.2-2.6V52.5c0-5.4,4.3-9.7,9.7-9.7S120.8,47.2,120.8,52.5"
   clip-path="url(#SVGID_00000151505896930187104570000011099133323361247657_)" />
	</g>
	<text
   transform="translate(301.7471,101.1973)"
   class="st4 st5 st6 st7"
   id="text4"><tspan
     style="font-style:normal;font-variant:normal;font-weight:600;font-stretch:normal;font-family:Montserrat;-inkscape-font-specification:'Montserrat Semi-Bold'"
     id="tspan1">MOBIFREE</tspan></text>
</g>
</svg>
